<?xml version="1.0" standalone="no"?>
<!DOCTYPE svg PUBLIC "-//W3C//DTD SVG 20010904//EN"
 "http://www.w3.org/TR/2001/REC-SVG-20010904/DTD/svg10.dtd">
<svg version="1.0" xmlns="http://www.w3.org/2000/svg"
 width="120.000000pt" height="120.000000pt" viewBox="0 0 120.000000 120.000000"
 preserveAspectRatio="xMidYMid meet">
<metadata>
Created by potrace 1.10, written by Peter Selinger 2001-2011
</metadata>
<g transform="translate(0.000000,120.000000) scale(0.100000,-0.100000)"
fill="#000000" stroke="none">
<path d="M154 869 c-11 -12 -14 -53 -14 -192 l0 -177 450 0 450 0 0 178 c0 97
-4 183 -9 190 -6 11 -94 14 -435 15 -378 2 -429 0 -442 -14z m314 -76 c18 -9
34 -25 37 -37 3 -11 9 -39 13 -61 9 -47 25 -51 32 -10 l5 29 204 -1 c207 -2
220 -4 221 -40 0 -27 -43 -33 -234 -33 -162 0 -196 -2 -196 -14 0 -8 5 -16 12
-18 6 -2 9 -12 5 -21 -7 -18 -49 -22 -221 -19 -118 2 -122 6 -118 120 3 112
10 118 123 119 56 1 95 -4 117 -14z m499 -16 c13 -13 14 -19 3 -31 -18 -23
-401 -24 -419 -2 -9 11 -9 19 0 34 11 18 24 19 206 17 164 -1 196 -4 210 -18z"/>
<path d="M144 391 c-9 -9 -3 -80 7 -86 17 -11 870 -8 881 3 5 5 8 26 6 47 l-3
37 -443 1 c-244 1 -446 0 -448 -2z"/>
</g>
</svg>
