<?xml version="1.0" standalone="no"?>
<!DOCTYPE svg PUBLIC "-//W3C//DTD SVG 20010904//EN"
 "http://www.w3.org/TR/2001/REC-SVG-20010904/DTD/svg10.dtd">
<svg version="1.0" xmlns="http://www.w3.org/2000/svg"
 width="40.000000pt" height="40.000000pt" viewBox="0 0 40.000000 40.000000"
 preserveAspectRatio="xMidYMid meet">
<metadata>
Created by potrace 1.10, written by Peter Selinger 2001-2011
</metadata>
<g transform="translate(0.000000,40.000000) scale(0.100000,-0.100000)"
fill="#000000" stroke="none">
<path d="M112 373 c2 -10 11 -16 19 -14 17 5 119 5 138 0 8 -2 17 4 19 14 3
15 -6 17 -88 17 -82 0 -91 -2 -88 -17z"/>
<path d="M47 342 c-32 -35 -12 -79 55 -128 48 -34 56 -53 28 -62 -9 -3 -11 1
-7 12 4 10 1 16 -8 16 -20 0 -19 -36 0 -44 32 -12 66 24 46 48 -5 6 -12 40
-15 76 -4 50 -11 69 -27 83 -27 22 -52 22 -72 -1z m57 -8 c9 -4 16 -18 16 -34
0 -16 5 -41 10 -56 15 -37 8 -39 -29 -8 -40 33 -54 59 -46 84 7 21 21 25 49
14z"/>
<path d="M284 345 c-21 -14 -36 -70 -35 -124 1 -13 -4 -29 -9 -36 -21 -25 12
-61 45 -49 19 8 20 44 0 44 -9 0 -12 -6 -8 -16 4 -11 2 -15 -7 -12 -28 9 -20
28 28 62 69 50 89 98 54 129 -23 21 -41 21 -68 2z m61 -25 c8 -25 -6 -51 -46
-84 -37 -31 -44 -29 -29 8 5 15 10 40 10 56 0 16 6 31 13 33 26 11 46 6 52
-13z"/>
<path d="M176 121 c5 -34 3 -42 -12 -47 -19 -7 -53 -43 -54 -56 0 -5 41 -8 90
-8 50 0 90 3 90 8 -1 13 -35 49 -54 56 -16 5 -17 13 -12 49 6 33 4 39 -5 30
-8 -8 -18 -9 -31 -2 -17 9 -18 7 -12 -30z m52 -64 l21 -23 -52 -1 -52 -1 28
24 c16 13 29 24 31 24 1 0 12 -10 24 -23z"/>
</g>
</svg>
