<?xml version="1.0" standalone="no"?>
<!DOCTYPE svg PUBLIC "-//W3C//DTD SVG 20010904//EN"
 "http://www.w3.org/TR/2001/REC-SVG-20010904/DTD/svg10.dtd">
<svg version="1.0" xmlns="http://www.w3.org/2000/svg"
 width="40.000000pt" height="40.000000pt" viewBox="0 0 40.000000 40.000000"
 preserveAspectRatio="xMidYMid meet">
<metadata>
Created by potrace 1.10, written by Peter Selinger 2001-2011
</metadata>
<g transform="translate(0.000000,40.000000) scale(0.100000,-0.100000)"
fill="#000000" stroke="none">
<path d="M16 254 c-4 -12 -1 -14 13 -9 27 8 38 -15 15 -32 -18 -13 -18 -15 -1
-24 29 -17 21 -42 -12 -37 -21 3 -28 1 -24 -9 8 -19 63 -12 77 9 8 13 8 23 -1
38 -8 12 -9 21 -3 25 14 9 12 21 -6 39 -20 20 -50 20 -58 0z"/>
<path d="M126 257 c-22 -16 -26 -88 -6 -112 15 -18 42 -19 58 -3 18 18 15 94
-4 112 -19 19 -25 20 -48 3z m42 -70 c-2 -20 -8 -32 -18 -32 -20 0 -27 74 -8
86 18 11 30 -14 26 -54z"/>
<path d="M221 256 c-7 -8 -11 -37 -9 -68 3 -47 6 -53 26 -56 35 -5 52 15 52
64 0 61 -40 95 -69 60z m49 -55 c0 -33 -14 -56 -29 -47 -12 8 -15 78 -4 89 12
12 33 -15 33 -42z"/>
<path d="M340 230 c0 -13 -7 -20 -20 -20 -11 0 -20 -4 -20 -10 0 -5 9 -10 20
-10 13 0 20 -7 20 -20 0 -11 5 -20 10 -20 6 0 10 9 10 20 0 13 7 20 20 20 11
0 20 5 20 10 0 6 -9 10 -20 10 -13 0 -20 7 -20 20 0 11 -4 20 -10 20 -5 0 -10
-9 -10 -20z"/>
</g>
</svg>
