<?xml version="1.0" standalone="no"?>
<!DOCTYPE svg PUBLIC "-//W3C//DTD SVG 20010904//EN"
 "http://www.w3.org/TR/2001/REC-SVG-20010904/DTD/svg10.dtd">
<svg version="1.0" xmlns="http://www.w3.org/2000/svg"
 width="120.000000pt" height="120.000000pt" viewBox="0 0 120.000000 120.000000"
 preserveAspectRatio="xMidYMid meet">
<metadata>
Created by potrace 1.10, written by Peter Selinger 2001-2011
</metadata>
<g transform="translate(0.000000,120.000000) scale(0.100000,-0.100000)"
fill="#000000" stroke="none">
<path d="M530 1145 c-7 -8 -25 -15 -40 -15 -35 0 -105 -52 -142 -105 -26 -37
-35 -70 -55 -207 -5 -40 19 -119 43 -139 24 -19 16 -38 -27 -65 -60 -37 -105
-90 -139 -160 -37 -77 -43 -189 -12 -217 35 -32 41 -21 39 71 -2 74 1 94 21
132 27 51 92 122 140 152 l33 20 32 -24 c17 -13 61 -32 95 -41 60 -17 67 -17
125 -1 34 10 77 29 95 42 30 23 35 24 60 11 42 -22 141 -126 148 -156 4 -16
11 -34 17 -40 5 -7 8 -54 6 -105 -4 -87 -3 -93 16 -93 45 0 45 203 0 274 -39
62 -84 110 -131 137 -43 25 -55 46 -34 59 17 10 50 92 50 122 -1 54 -48 213
-74 247 -27 37 -104 86 -133 86 -10 0 -27 7 -37 15 -26 19 -80 19 -96 0z m113
-80 c37 -15 83 -73 69 -86 -4 -4 -34 -4 -67 0 -33 3 -84 3 -114 -1 -64 -8 -71
-5 -71 28 0 18 12 32 48 54 50 33 69 33 135 5z m107 -172 c12 -16 31 -30 43
-33 17 -5 23 -15 25 -45 6 -73 -53 -166 -130 -206 -48 -25 -165 -26 -211 -3
-76 39 -125 111 -130 191 -2 41 1 49 21 58 12 5 22 14 22 19 0 5 7 18 17 28
14 16 34 18 169 18 l153 0 21 -27z"/>
<path d="M450 851 c-53 -6 -53 -6 -21 -13 42 -10 247 -9 281 1 56 16 -137 25
-260 12z"/>
<path d="M417 794 c-11 -11 -8 -44 3 -44 6 0 19 5 29 12 15 9 25 9 46 0 25
-11 26 -11 23 10 -3 20 -10 23 -48 26 -25 2 -49 0 -53 -4z"/>
<path d="M637 794 c-19 -19 -5 -33 31 -32 20 1 45 -2 55 -6 16 -7 18 -5 15 15
-3 21 -9 24 -48 27 -25 2 -49 0 -53 -4z"/>
<path d="M480 682 c-33 -11 40 -62 88 -62 47 0 114 29 110 48 -3 13 -20 16
-95 17 -51 0 -97 -1 -103 -3z"/>
<path d="M325 428 c-2 -7 -6 -26 -8 -43 -22 -134 -31 -174 -43 -203 -16 -37
-19 -158 -4 -167 5 -3 27 -1 47 4 57 15 478 17 531 2 34 -9 47 -9 58 0 17 14
19 96 3 136 -16 39 -40 148 -46 208 -3 28 -10 56 -15 63 -8 9 -73 12 -265 12
-194 0 -255 -3 -258 -12z m403 -67 c46 -23 70 -68 53 -99 -26 -49 -151 -89
-244 -79 -72 9 -155 50 -163 80 -10 41 -1 60 41 88 47 32 80 38 192 34 57 -3
94 -10 121 -24z m-247 -207 c89 -14 107 -14 189 0 126 22 175 21 201 -5 40
-40 17 -44 -271 -47 -303 -3 -343 4 -294 52 19 20 51 20 175 0z"/>
</g>
</svg>
