<?xml version="1.0" standalone="no"?>
<!DOCTYPE svg PUBLIC "-//W3C//DTD SVG 20010904//EN"
 "http://www.w3.org/TR/2001/REC-SVG-20010904/DTD/svg10.dtd">
<svg version="1.0" xmlns="http://www.w3.org/2000/svg"
 width="120.000000pt" height="120.000000pt" viewBox="0 0 120.000000 120.000000"
 preserveAspectRatio="xMidYMid meet">
<metadata>
Created by potrace 1.10, written by Peter Selinger 2001-2011
</metadata>
<g transform="translate(0.000000,120.000000) scale(0.100000,-0.100000)"
fill="#000000" stroke="none">
<path d="M236 1103 l-39 -4 5 -64 c4 -38 1 -71 -6 -83 -6 -11 -38 -63 -71
-116 -33 -53 -65 -104 -70 -114 -6 -9 -19 -29 -29 -44 -20 -30 -16 -58 8 -58
9 0 21 10 27 23 22 41 49 44 49 6 0 -10 7 -19 15 -19 10 0 15 10 15 30 0 20 5
30 15 30 17 0 20 11 5 26 -14 14 19 82 44 90 14 5 26 -1 43 -22 36 -45 25 -84
-24 -84 -19 0 -22 -5 -20 -32 3 -42 21 -46 37 -8 16 40 46 40 54 0 6 -34 26
-41 26 -10 0 30 38 26 52 -5 7 -16 19 -25 34 -25 42 0 40 9 -28 109 -10 14
-21 33 -25 41 -4 8 -35 57 -70 108 -35 51 -63 101 -63 111 0 12 14 25 37 36
31 15 44 16 77 7 22 -6 44 -8 48 -6 15 9 8 44 -12 64 -20 20 -42 22 -134 13z"/>
<path d="M906 1055 c-12 -9 -42 -15 -74 -15 l-55 0 7 -42 c10 -59 20 -68 59
-56 18 6 44 17 59 24 33 18 92 18 150 0 51 -15 79 -8 53 14 -14 12 -14 15 1
31 21 24 15 30 -44 46 -63 16 -133 16 -156 -2z"/>
<path d="M610 921 c-33 -6 -35 -9 -38 -48 -4 -49 8 -54 59 -27 21 11 43 13 70
9 l39 -7 0 35 c0 31 -3 35 -31 41 -35 7 -47 6 -99 -3z"/>
<path d="M806 867 c-15 -31 1 -148 25 -180 14 -20 19 -36 15 -53 -6 -23 -11
-25 -54 -22 l-47 3 -3 58 c-3 56 -4 57 -32 57 -30 0 -30 -1 -30 -54 0 -59 -15
-75 -51 -56 -14 8 -19 21 -19 49 0 55 -36 83 -84 65 -18 -7 -22 -49 -6 -59 6
-3 10 -27 10 -53 0 -59 19 -87 78 -115 l47 -22 1 -108 c1 -66 6 -113 13 -120
6 -6 11 -18 11 -26 0 -9 5 -23 10 -31 9 -13 11 -13 19 0 8 11 15 12 33 3 13
-6 30 -13 39 -16 15 -5 33 -56 23 -66 -4 -4 -27 -4 -124 1 l-65 3 0 59 c0 51
-3 60 -23 69 -15 7 -22 19 -22 37 0 53 -57 49 -62 -3 -3 -28 -7 -32 -33 -32
-27 0 -30 4 -33 33 -3 32 -14 38 -46 26 -12 -5 -13 -11 -6 -24 7 -13 7 -21 0
-25 -5 -3 -10 -14 -10 -24 0 -22 27 -30 125 -37 69 -5 87 -15 82 -44 -2 -12
-24 -16 -97 -21 -155 -11 -345 -10 -399 2 -45 9 -52 8 -70 -10 -28 -28 -26
-39 7 -53 42 -17 420 -23 519 -8 80 12 85 11 131 -11 38 -19 64 -23 132 -23
47 -1 97 5 113 11 l27 13 -1 157 c-1 193 -4 205 -49 214 -30 7 -38 4 -56 -18
l-20 -25 -34 31 c-19 17 -37 31 -41 31 -4 0 -9 9 -12 21 -3 11 -15 23 -26 26
-16 4 -41 48 -41 73 0 14 53 31 64 20 13 -13 82 -13 108 1 14 8 28 7 49 -1 32
-14 32 -31 3 -77 -8 -12 -14 -25 -14 -28 0 -15 64 -2 118 25 60 29 61 30 67
77 3 26 11 64 17 84 13 46 5 59 -36 59 -40 0 -56 -15 -56 -53 0 -40 -17 -67
-43 -67 -38 0 -48 14 -46 58 3 51 -13 72 -40 55 -29 -18 -40 3 -43 87 -2 52
-6 69 -12 57z m-42 -453 c12 -5 16 -21 16 -74 0 -79 -14 -100 -55 -82 -27 13
-29 23 -19 110 7 53 17 62 58 46z m130 -165 c12 -77 5 -91 -41 -87 l-38 3 4
55 c4 69 16 92 44 88 18 -2 23 -12 31 -59z"/>
<path d="M1020 864 c-19 -8 -48 -13 -65 -12 -25 3 -31 -1 -33 -21 -2 -12 -1
-34 2 -47 l6 -24 58 26 c49 22 66 25 120 19 42 -4 62 -3 62 4 0 6 7 11 15 11
8 0 15 6 15 14 0 8 -24 20 -58 30 -70 19 -77 19 -122 0z"/>
<path d="M87 593 c-9 -15 -7 -252 2 -257 5 -3 14 1 21 8 16 21 68 30 85 16 8
-6 16 -21 18 -33 4 -22 4 -22 6 1 2 36 43 49 88 28 19 -9 37 -16 38 -14 2 2 5
57 6 123 l3 119 -115 1 c-63 1 -121 5 -130 9 -10 4 -19 4 -22 -1z m77 -76 c8
-31 7 -41 -7 -55 -24 -23 -51 -5 -55 37 -7 67 46 82 62 18z m98 16 c29 -33 30
-60 6 -102 -12 -22 -31 -42 -41 -45 -19 -5 -47 18 -47 39 0 21 23 68 40 83 11
10 12 15 3 18 -19 8 -15 24 5 24 11 0 26 -8 34 -17z"/>
<path d="M0 297 c0 -35 9 -56 31 -67 16 -9 18 -6 16 37 -2 41 -5 48 -24 51
-19 3 -23 -1 -23 -21z"/>
<path d="M140 275 c0 -22 5 -35 13 -35 9 0 12 11 9 35 -2 19 -8 35 -13 35 -5
0 -9 -16 -9 -35z"/>
<path d="M272 273 c2 -26 8 -38 18 -38 8 0 13 7 11 15 -2 8 -3 25 -3 38 1 14
-4 22 -14 22 -12 0 -14 -9 -12 -37z"/>
</g>
</svg>
