<?xml version="1.0" standalone="no"?>
<!DOCTYPE svg PUBLIC "-//W3C//DTD SVG 20010904//EN"
 "http://www.w3.org/TR/2001/REC-SVG-20010904/DTD/svg10.dtd">
<svg version="1.0" xmlns="http://www.w3.org/2000/svg"
 width="39.000000pt" height="39.000000pt" viewBox="0 0 39.000000 39.000000"
 preserveAspectRatio="xMidYMid meet">
<metadata>
Created by potrace 1.10, written by Peter Selinger 2001-2011
</metadata>
<g transform="translate(0.000000,39.000000) scale(0.100000,-0.100000)"
fill="#000000" stroke="none">
<path d="M305 340 c-21 -22 -35 -40 -31 -40 5 0 3 -7 -4 -15 -7 -8 -21 -15
-32 -15 -44 0 -163 -88 -145 -107 4 -4 14 3 22 15 24 33 75 65 107 67 l29 2
-43 -44 c-29 -29 -37 -43 -26 -43 9 0 26 14 38 31 26 36 39 32 15 -5 -11 -16
-13 -26 -6 -26 6 0 19 17 28 38 32 74 36 81 45 76 6 -4 27 11 49 32 36 35 38
39 22 56 -9 10 -19 18 -23 18 -3 0 -24 -18 -45 -40z m35 -15 c-13 -14 -28 -25
-33 -25 -6 0 0 11 13 25 13 14 28 25 33 25 6 0 0 -11 -13 -25z"/>
<path d="M167 200 c-23 -22 -37 -40 -32 -40 6 0 29 18 50 40 51 52 37 52 -18
0z"/>
<path d="M6 113 c4 -16 16 -45 27 -66 l21 -37 125 0 126 0 25 37 c14 20 30 49
37 65 l12 28 -190 0 -189 0 6 -27z m44 -29 c0 -6 7 -17 15 -24 17 -14 20 -30
5 -30 -11 0 -50 72 -50 92 1 16 30 -21 30 -38z m286 25 c2 -4 -4 -23 -14 -41
l-19 -33 -97 -3 c-93 -3 -134 7 -121 28 3 5 -2 15 -10 23 -8 9 -15 20 -15 25
0 11 269 12 276 1z"/>
</g>
</svg>
