<?xml version="1.0" standalone="no"?>
<!DOCTYPE svg PUBLIC "-//W3C//DTD SVG 20010904//EN"
 "http://www.w3.org/TR/2001/REC-SVG-20010904/DTD/svg10.dtd">
<svg version="1.0" xmlns="http://www.w3.org/2000/svg"
 width="40.000000pt" height="40.000000pt" viewBox="0 0 40.000000 40.000000"
 preserveAspectRatio="xMidYMid meet">
<metadata>
Created by potrace 1.10, written by Peter Selinger 2001-2011
</metadata>
<g transform="translate(0.000000,40.000000) scale(0.100000,-0.100000)"
fill="#000000" stroke="none">
<path d="M198 376 c-13 -30 -5 -56 18 -56 12 0 15 5 9 23 -4 12 -7 30 -6 40 0
24 -7 21 -21 -7z"/>
<path d="M190 273 l0 -33 -58 0 c-32 0 -63 -5 -70 -12 -14 -14 -16 -98 -2 -98
6 0 10 14 10 30 0 22 5 30 18 30 10 0 23 5 30 12 8 8 16 5 31 -13 18 -23 20
-23 38 -6 25 22 29 21 36 -3 7 -28 35 -25 43 5 8 33 16 31 34 -8 10 -21 21
-31 33 -29 9 2 17 -2 17 -8 0 -5 5 -10 10 -10 14 0 12 84 -2 98 -7 7 -36 12
-65 12 l-53 0 0 33 c0 28 -3 32 -25 32 -22 0 -25 -4 -25 -32z m40 -13 c0 -5
-4 -10 -10 -10 -5 0 -10 5 -10 10 0 6 5 10 10 10 6 0 10 -4 10 -10z m13 -34
c9 -7 17 -16 17 -20 0 -10 -38 -7 -45 4 -5 8 -11 7 -20 0 -8 -7 -19 -9 -25 -5
-8 5 -3 12 12 20 30 17 39 17 61 1z m101 -22 c9 -24 7 -34 -7 -34 -14 0 -39
35 -30 44 12 11 31 6 37 -10z"/>
<path d="M53 113 c-16 -6 -17 -83 -2 -83 7 0 9 11 6 26 -6 33 32 51 74 34 20
-9 33 -9 47 -1 16 8 28 7 52 -7 30 -16 32 -16 45 2 14 18 16 18 33 3 10 -9 28
-17 40 -17 17 0 22 -6 22 -26 0 -14 4 -23 10 -19 14 9 13 68 -2 83 -12 12
-297 17 -325 5z"/>
<path d="M10 9 c0 -5 86 -9 195 -9 115 0 195 4 195 9 0 6 -80 10 -195 9 -109
0 -195 -4 -195 -9z"/>
</g>
</svg>
