<?xml version="1.0" standalone="no"?>
<!DOCTYPE svg PUBLIC "-//W3C//DTD SVG 20010904//EN"
 "http://www.w3.org/TR/2001/REC-SVG-20010904/DTD/svg10.dtd">
<svg version="1.0" xmlns="http://www.w3.org/2000/svg"
 width="40.000000pt" height="40.000000pt" viewBox="0 0 40.000000 40.000000"
 preserveAspectRatio="xMidYMid meet">
<metadata>
Created by potrace 1.10, written by Peter Selinger 2001-2011
</metadata>
<g transform="translate(0.000000,40.000000) scale(0.100000,-0.100000)"
fill="#000000" stroke="none">
<path d="M10 315 c-6 -30 3 -91 16 -101 17 -14 18 -36 2 -52 -9 -9 -9 -12 0
-12 7 0 12 -13 12 -31 0 -20 -4 -28 -11 -23 -7 4 -10 1 -7 -7 3 -8 13 -14 24
-14 15 0 20 8 22 39 2 21 -1 43 -7 49 -14 14 -14 44 0 49 14 5 29 97 17 104
-4 3 -9 -7 -9 -23 l-1 -28 -8 30 -8 30 -2 -30 -2 -30 -8 30 -8 30 -2 -30 -2
-30 -8 30 c-4 17 -9 26 -10 20z"/>
<path d="M149 297 c-86 -58 -77 -167 17 -208 44 -20 44 -20 88 0 94 41 103
150 17 208 -43 29 -79 29 -122 0z m115 -28 c21 -17 26 -27 22 -46 -8 -31 -45
-73 -76 -86 -22 -9 -23 -11 -6 -15 27 -6 69 29 81 66 10 33 25 43 25 17 0 -29
-30 -75 -60 -90 -33 -17 -70 -20 -70 -5 0 6 -6 10 -14 10 -8 0 -24 12 -35 26
-65 83 50 188 133 123z"/>
<path d="M371 292 c-12 -22 -18 -99 -8 -108 4 -4 2 -13 -4 -21 -9 -10 -8 -13
1 -13 12 0 10 -27 -5 -62 -5 -14 -2 -18 13 -18 19 0 20 7 21 120 0 66 -2 120
-4 120 -2 0 -9 -8 -14 -18z"/>
</g>
</svg>
