<?xml version="1.0" standalone="no"?>
<!DOCTYPE svg PUBLIC "-//W3C//DTD SVG 20010904//EN"
 "http://www.w3.org/TR/2001/REC-SVG-20010904/DTD/svg10.dtd">
<svg version="1.0" xmlns="http://www.w3.org/2000/svg"
 width="40.000000pt" height="40.000000pt" viewBox="0 0 40.000000 40.000000"
 preserveAspectRatio="xMidYMid meet">
<metadata>
Created by potrace 1.10, written by Peter Selinger 2001-2011
</metadata>
<g transform="translate(0.000000,40.000000) scale(0.050000,-0.050000)"
fill="#000000" stroke="none">
<path d="M265 751 c-8 -14 -35 -36 -60 -49 -25 -13 -45 -41 -45 -63 0 -22 -13
-61 -30 -86 -26 -40 -26 -50 -1 -84 17 -22 30 -59 30 -84 1 -30 18 -52 49 -64
26 -10 54 -28 61 -40 18 -28 217 -27 245 1 13 13 44 33 69 46 26 13 50 45 54
73 4 27 16 61 28 75 15 18 15 39 0 70 -12 24 -27 69 -34 99 -6 30 -24 55 -40
55 -15 0 -44 16 -63 35 -43 43 -240 55 -263 16z m272 -168 c-4 -10 -48 -63
-98 -118 l-92 -101 -52 65 c-47 59 -49 68 -21 97 29 28 35 28 64 -9 32 -39 33
-38 91 22 54 56 123 84 108 44z"/>
<path d="M220 178 c-12 -49 -26 -100 -31 -115 -7 -20 3 -25 35 -16 24 6 55 2
68 -9 31 -25 40 -9 57 97 13 75 10 85 -23 85 -21 0 -48 10 -61 23 -16 16 -28
-1 -45 -65z"/>
<path d="M510 240 c-7 -11 -33 -20 -58 -20 -44 0 -45 -4 -25 -80 23 -87 41
-99 70 -45 19 32 22 32 58 0 59 -54 64 -43 29 65 -31 99 -50 119 -74 80z"/>
</g>
</svg>
