<?xml version="1.0" standalone="no"?>
<!DOCTYPE svg PUBLIC "-//W3C//DTD SVG 20010904//EN"
 "http://www.w3.org/TR/2001/REC-SVG-20010904/DTD/svg10.dtd">
<svg version="1.0" xmlns="http://www.w3.org/2000/svg"
 width="40.000000pt" height="40.000000pt" viewBox="0 0 40.000000 40.000000"
 preserveAspectRatio="xMidYMid meet">
<metadata>
Created by potrace 1.10, written by Peter Selinger 2001-2011
</metadata>
<g transform="translate(0.000000,40.000000) scale(0.100000,-0.100000)"
fill="#000000" stroke="none">
<path d="M181 374 c-25 -32 -27 -81 -5 -112 28 -41 37 -27 30 48 -4 42 -2 70
3 70 13 0 25 -84 17 -107 -6 -15 -5 -16 6 -5 21 20 16 89 -8 113 l-21 21 -22
-28z"/>
<path d="M220 242 c-31 -32 -75 -69 -98 -84 -44 -29 -117 -128 -110 -150 3 -8
12 0 22 19 26 50 74 101 137 144 51 34 89 73 113 117 15 27 -12 7 -64 -46z"/>
<path d="M315 288 c-21 -12 -35 -28 -35 -40 0 -5 20 -8 43 -8 32 0 49 6 63 21
16 17 16 22 4 29 -20 13 -51 12 -75 -2z m60 -7 c-16 -14 -75 -31 -75 -21 0 4
12 13 28 18 35 13 59 15 47 3z"/>
<path d="M60 261 c-15 -30 -12 -56 11 -82 l20 -24 -4 59 c-3 51 -2 57 10 41 7
-11 13 -35 13 -54 0 -27 3 -32 10 -21 16 24 11 66 -8 83 -24 22 -39 21 -52 -2z"/>
<path d="M221 184 c-17 -7 -31 -15 -31 -16 0 -2 29 -2 65 0 44 3 65 1 65 -7 0
-9 -84 -17 -127 -12 -20 3 -15 -17 6 -29 30 -16 73 -12 109 10 48 29 42 45
-23 60 -20 5 -44 2 -64 -6z"/>
<path d="M94 88 c-5 -8 1 -10 22 -6 16 3 38 2 49 -2 14 -6 4 -9 -35 -10 -51
-1 -53 -2 -36 -15 27 -21 70 -19 90 4 17 19 17 20 -3 30 -26 14 -78 14 -87 -1z"/>
</g>
</svg>
