<?xml version="1.0" standalone="no"?>
<!DOCTYPE svg PUBLIC "-//W3C//DTD SVG 20010904//EN"
 "http://www.w3.org/TR/2001/REC-SVG-20010904/DTD/svg10.dtd">
<svg version="1.0" xmlns="http://www.w3.org/2000/svg"
 width="120.000000pt" height="120.000000pt" viewBox="0 0 120.000000 120.000000"
 preserveAspectRatio="xMidYMid meet">
<metadata>
Created by potrace 1.10, written by Peter Selinger 2001-2011
</metadata>
<g transform="translate(0.000000,120.000000) scale(0.100000,-0.100000)"
fill="#000000" stroke="none">
<path d="M370 1141 c-119 -43 -253 -157 -298 -253 -53 -113 -54 -117 -48 -196
3 -42 5 -93 4 -112 -8 -153 -3 -194 29 -260 56 -116 149 -208 268 -266 60 -29
107 -33 255 -24 14 1 57 -2 97 -6 102 -10 189 23 300 113 42 34 123 134 123
151 0 5 7 15 15 22 8 7 15 20 15 30 0 10 7 31 15 46 11 22 15 67 15 194 0 185
-11 236 -74 334 -42 65 -152 168 -208 194 -109 51 -106 50 -288 50 -136 -1
-185 -4 -220 -17z m183 -55 c3 -7 3 -31 0 -53 -6 -45 10 -65 45 -56 23 6 25
12 22 81 -1 38 1 42 23 42 34 0 172 -57 227 -93 94 -62 188 -193 207 -288 3
-16 10 -32 14 -35 5 -3 9 -18 9 -35 0 -26 -3 -29 -32 -29 -38 0 -55 -9 -58
-30 -5 -32 1 -39 36 -42 50 -4 62 -26 41 -71 -9 -19 -17 -39 -17 -44 0 -26
-73 -143 -121 -192 -78 -81 -228 -161 -301 -161 -26 0 -28 3 -28 46 0 45 0 45
-32 42 -31 -3 -33 -5 -33 -43 0 -37 -2 -40 -29 -43 -63 -8 -215 73 -297 157
-59 62 -77 90 -141 227 -5 11 -8 34 -6 50 3 27 6 29 40 26 66 -5 98 27 62 63
-12 11 -30 15 -58 13 -40 -3 -41 -2 -44 30 -2 19 4 49 12 67 9 18 16 37 16 42
0 16 36 80 75 133 62 84 151 146 275 191 58 21 87 23 93 5z"/>
<path d="M813 808 c-54 -51 -124 -118 -156 -150 -32 -32 -64 -58 -73 -58 -8 0
-61 48 -118 106 -71 72 -110 105 -122 102 -44 -8 -25 -40 102 -171 71 -73 134
-136 141 -140 19 -12 33 -1 134 108 51 55 123 133 161 172 47 50 68 81 68 98
0 46 -36 28 -137 -67z"/>
</g>
</svg>
