<?xml version="1.0" standalone="no"?>
<!DOCTYPE svg PUBLIC "-//W3C//DTD SVG 20010904//EN"
 "http://www.w3.org/TR/2001/REC-SVG-20010904/DTD/svg10.dtd">
<svg version="1.0" xmlns="http://www.w3.org/2000/svg"
 width="40.000000pt" height="40.000000pt" viewBox="0 0 40.000000 40.000000"
 preserveAspectRatio="xMidYMid meet">
<metadata>
Created by potrace 1.10, written by Peter Selinger 2001-2011
</metadata>
<g transform="translate(0.000000,40.000000) scale(0.050000,-0.050000)"
fill="#000000" stroke="none">
<path d="M373 767 c-20 -21 -16 -137 7 -198 25 -66 -3 -109 -72 -109 -44 0
-104 -70 -80 -94 6 -6 -1 -28 -16 -49 -27 -39 -11 -122 38 -197 11 -16 20 -39
20 -50 0 -11 36 -32 80 -46 106 -35 201 -10 198 52 0 24 7 44 18 44 10 0 14
23 9 50 -5 28 -2 56 8 62 33 20 17 145 -33 251 -27 59 -50 139 -50 178 0 96
-75 158 -127 106z m144 -353 c17 -20 7 -24 -48 -18 -38 5 -69 16 -69 26 0 28
92 21 117 -8z m50 -118 c-14 -23 -191 -19 -227 5 -21 14 9 18 104 15 73 -2
129 -11 123 -20z m-40 -120 c-14 -24 -207 -19 -207 4 0 12 45 19 109 16 59 -2
104 -12 98 -20z"/>
</g>
</svg>
